<svg width="289" height="27" viewBox="0 0 289 27" fill="none" xmlns="http://www.w3.org/2000/svg">
<path d="M7.85428 6.10583V11.6212H18.7888V16.9526H7.85428V25.4095H0.811737V0.774353H20.4567V6.10583H7.85428Z" fill="#5D69F7"/>
<path d="M29.9085 24.3064C27.8699 23.2033 26.2019 21.7326 24.9046 19.7103C23.7927 17.688 23.0513 15.4819 23.0513 13.0919C23.0513 10.7019 23.6073 8.49582 24.9046 6.47353C26.0166 4.45125 27.6846 2.9805 29.9085 1.87743C31.9472 0.774371 34.3565 0.222839 36.9511 0.222839C39.5457 0.222839 41.955 0.774371 43.9936 1.87743C46.0323 2.9805 47.7002 4.45125 48.9975 6.47353C50.1095 8.49582 50.8508 10.7019 50.8508 13.0919C50.8508 15.4819 50.2949 17.688 48.9975 19.7103C47.8856 21.7326 46.2176 23.2033 43.9936 24.3064C41.955 25.4095 39.5457 25.961 36.9511 25.961C34.3565 25.961 31.9472 25.4095 29.9085 24.3064ZM40.287 19.3426C41.399 18.7911 42.1403 17.8719 42.6963 16.7688C43.2523 15.6657 43.623 14.3788 43.623 13.0919C43.623 11.6212 43.2523 10.5181 42.6963 9.41504C42.1403 8.31197 41.2137 7.5766 40.287 6.84122C39.1751 6.28969 38.0631 5.922 36.9511 5.922C35.6538 5.922 34.5418 6.28969 33.6151 6.84122C32.5032 7.39276 31.7618 8.31197 31.2059 9.41504C30.6499 10.5181 30.2792 11.805 30.2792 13.0919C30.2792 14.5627 30.6499 15.6657 31.2059 16.7688C31.7618 17.8719 32.6885 18.6072 33.6151 19.3426C34.7271 19.8941 35.8391 20.2618 36.9511 20.2618C38.2484 20.078 39.3604 19.8941 40.287 19.3426Z" fill="#5D69F7"/>
<path d="M66.2332 18.9749H62.3413V25.5933H55.2988V0.774353H66.7892C69.0132 0.774353 71.0518 1.14204 72.7198 1.87742C74.3878 2.61279 75.6851 3.71586 76.6117 5.00277C77.5384 6.28967 77.909 7.94427 77.909 9.78271C77.909 11.6212 77.5384 13.0919 76.6117 14.3788C75.6851 15.6657 74.5731 16.7688 72.9051 17.5042L78.2797 25.2256H70.6812L66.2332 18.9749ZM69.7545 7.20889C69.0132 6.65736 67.9012 6.28967 66.4186 6.28967H62.5266V13.4596H66.4186C67.9012 13.4596 69.0132 13.0919 69.7545 12.5404C70.4958 11.9888 70.8665 11.0696 70.8665 9.78271C70.6812 8.67965 70.4958 7.76042 69.7545 7.20889Z" fill="#5D69F7"/>
<path d="M102.743 20.078V25.4095H82.7277V0.774353H102.373V6.10583H89.7702V10.3342H100.89V15.4819H89.7702V20.078H102.743Z" fill="#5D69F7"/>
<path d="M123.13 25.4095L117.94 17.6881L112.751 25.4095H104.782L113.863 12.9081L105.153 0.590576H113.122L118.126 7.76049L123.13 0.590576H130.728L122.018 12.5404L131.284 25.4095H123.13Z" fill="#5D69F7"/>
<path d="M151.114 6.28967H143.516V0.774353H165.755V6.28967H158.157V25.4095H151.114V6.28967Z" fill="#5D69F7"/>
<path d="M189.292 20.078V25.4095H169.277V0.774353H188.922V6.10583H176.319V10.3342H187.439V15.4819H176.319V20.078H189.292Z" fill="#5D69F7"/>
<path d="M196.891 25.2256C195.038 24.6741 193.37 24.1226 192.258 23.2033L194.667 18.0557C195.779 18.7911 197.076 19.3426 198.559 19.8941C200.042 20.2618 201.524 20.6295 202.822 20.6295C205.601 20.6295 206.899 19.8941 206.899 18.6072C206.899 17.8719 206.528 17.3203 205.787 16.9526C205.045 16.585 203.748 16.2173 202.08 15.8496C200.227 15.4819 198.559 14.9304 197.447 14.5627C196.15 14.195 195.038 13.2758 194.111 12.3565C193.184 11.2535 192.814 9.96657 192.814 8.31197C192.814 6.84122 193.184 5.37047 194.111 4.26741C194.852 2.9805 196.15 2.06128 197.818 1.3259C199.486 0.590528 201.524 0.222839 203.933 0.222839C205.601 0.222839 207.269 0.406684 208.752 0.774372C210.42 1.14206 211.717 1.69359 213.015 2.42897L210.791 7.5766C208.381 6.28969 206.157 5.73816 203.933 5.73816C202.451 5.73816 201.524 5.922 200.783 6.28969C200.227 6.65738 199.856 7.20891 199.856 7.94429C199.856 8.67966 200.227 9.04735 200.968 9.41504C201.71 9.78273 203.007 10.1504 204.675 10.5181C206.528 10.8858 208.196 11.4373 209.308 11.805C210.605 12.1727 211.717 12.9081 212.644 14.0111C213.571 14.9304 213.941 16.4011 213.941 18.0557C213.941 19.5265 213.571 20.8134 212.644 22.1003C211.903 23.3872 210.605 24.3064 208.937 25.0418C207.269 25.7772 205.231 26.1448 202.822 26.1448C200.783 25.961 198.93 25.7772 196.891 25.2256Z" fill="#5D69F7"/>
<path d="M223.022 6.28967H215.424V0.774353H237.849V6.28967H230.25V25.4095H223.208V6.28967H223.022Z" fill="#5D69F7"/>
<path d="M261.201 20.078V25.4095H241.185V0.774353H260.83V6.10583H248.227V10.3342H259.347V15.4819H248.227V20.078H261.201Z" fill="#5D69F7"/>
<path d="M276.954 18.9749H273.062V25.5933H266.019V0.774353H277.51C279.733 0.774353 281.772 1.14204 283.44 1.87742C285.108 2.61279 286.405 3.71586 287.332 5.00277C288.259 6.28967 288.629 7.94427 288.629 9.78271C288.629 11.6212 288.259 13.0919 287.332 14.3788C286.405 15.6657 285.293 16.7688 283.625 17.5042L289 25.2256H281.401L276.954 18.9749ZM280.289 7.20889C279.548 6.65736 278.436 6.28967 276.954 6.28967H273.062V13.4596H276.954C278.436 13.4596 279.548 13.0919 280.289 12.5404C281.031 11.9888 281.401 11.0696 281.401 9.78271C281.401 8.67965 281.031 7.76042 280.289 7.20889Z" fill="#5D69F7"/>
</svg>
